<?xml version="1.0" encoding="UTF-8" standalone="no"?>
<svg
   xmlns:dc="http://purl.org/dc/elements/1.1/"
   xmlns:cc="http://creativecommons.org/ns#"
   xmlns:rdf="http://www.w3.org/1999/02/22-rdf-syntax-ns#"
   xmlns:svg="http://www.w3.org/2000/svg"
   xmlns="http://www.w3.org/2000/svg"
   viewBox="0 0 166.64 43.373333"
   height="43.373333"
   width="166.64"
   xml:space="preserve"
   id="svg2"
   version="1.1"><metadata
     id="metadata8"><rdf:RDF><cc:Work
         rdf:about=""><dc:format>image/svg+xml</dc:format><dc:type
           rdf:resource="http://purl.org/dc/dcmitype/StillImage" /></cc:Work></rdf:RDF></metadata><defs
     id="defs6" /><g
     transform="matrix(1.3333333,0,0,-1.3333333,0,43.373333)"
     id="g10"><g
       transform="scale(0.1)"
       id="g12"><path
         id="path14"
         style="fill:#ffffff;fill-opacity:1;fill-rule:nonzero;stroke:none"
         d="m 153.121,270.879 c -22.141,0 -39.465,-6.254 -51.965,-18.754 C 88.6523,239.621 80.6602,221.891 77.1719,198.938 H 219.84 c 0,9.835 -1.332,19.109 -3.996,27.82 -2.668,8.711 -6.766,16.347 -12.297,22.91 -5.539,6.559 -12.508,11.73 -20.91,15.527 -8.407,3.789 -18.246,5.684 -29.516,5.684 z m -1.539,54.426 c 19.879,0 38.176,-3.18 54.883,-9.532 16.703,-6.359 31.101,-15.636 43.199,-27.828 12.094,-12.199 21.524,-27.164 28.285,-44.886 6.77,-17.735 10.149,-37.977 10.149,-60.731 0,-5.734 -0.262,-10.504 -0.77,-14.297 -0.512,-3.793 -1.433,-6.761 -2.765,-8.914 -1.336,-2.152 -3.125,-3.695 -5.383,-4.613 -2.254,-0.918 -5.125,-1.391 -8.61,-1.391 H 75.6406 c 2.25,-32.379 10.961,-56.1599 26.1324,-71.3278 15.165,-15.1719 35.254,-22.7539 60.262,-22.7539 12.301,0 22.906,1.4375 31.82,4.3085 8.918,2.8711 16.708,6.0469 23.372,9.5313 6.66,3.4883 12.5,6.6602 17.523,9.5312 5.02,2.8711 9.891,4.3086 14.605,4.3086 3.079,0 5.739,-0.6171 7.993,-1.8476 2.257,-1.2305 4.199,-2.9766 5.843,-5.2227 L 285.332,51.9648 C 276.926,42.1172 267.496,33.8789 257.039,27.2188 246.586,20.5586 235.676,15.2266 224.297,11.2227 212.922,7.22656 201.34,4.41406 189.555,2.76563 177.766,1.13281 166.34,0.304688 155.273,0.304688 133.336,0.304688 112.938,3.95313 94.0859,11.2227 75.2227,18.4961 58.8281,29.2578 44.8945,43.5078 30.9492,57.7539 19.9844,75.3828 11.9922,96.3984 4,117.402 0,141.746 0,169.418 c 0,21.52 3.48047,41.766 10.4531,60.723 6.9688,18.961 16.9571,35.461 29.9805,49.504 13.0156,14.039 28.9023,25.16 47.6562,33.359 18.7582,8.199 39.9182,12.301 63.4922,12.301" /><path
         id="path16"
         style="fill:#ffffff;fill-opacity:1;fill-rule:nonzero;stroke:none"
         d="m 496.859,58.7305 c 26.231,0 45.657,8.8086 58.262,26.4336 12.609,17.6409 18.906,43.4569 18.906,77.4879 0,34.024 -6.297,59.957 -18.906,77.793 -12.605,17.832 -32.031,26.746 -58.262,26.746 -26.648,0 -46.328,-8.968 -59.043,-26.902 -12.703,-17.941 -19.062,-43.812 -19.062,-77.637 0,-33.812 6.359,-59.593 19.062,-77.3278 12.715,-17.7344 32.395,-26.5937 59.043,-26.5937 z m 0,266.5745 c 23.575,0 44.942,-3.797 64.102,-11.379 19.16,-7.582 35.519,-18.344 49.043,-32.285 13.535,-13.942 23.984,-30.953 31.367,-51.036 7.375,-20.093 11.067,-42.539 11.067,-67.339 0,-25.012 -3.692,-47.551 -11.067,-67.641 C 633.988,75.5352 623.539,58.4297 610.004,44.2773 596.48,30.1289 580.121,19.2695 560.961,11.6914 541.801,4.11328 520.434,0.304688 496.859,0.304688 c -23.574,0 -45,3.808592 -64.257,11.386712 -19.278,7.5781 -35.723,18.4375 -49.356,32.5859 -13.633,14.1524 -24.187,31.2579 -31.66,51.3477 -7.488,20.09 -11.231,42.629 -11.231,67.641 0,24.8 3.743,47.246 11.231,67.339 7.473,20.083 18.027,37.094 31.66,51.036 13.633,13.941 30.078,24.703 49.356,32.285 19.257,7.582 40.683,11.379 64.257,11.379" /><path
         id="path18"
         style="fill:#ffffff;fill-opacity:1;fill-rule:nonzero;stroke:none"
         d="m 911.324,258.891 c -2.051,-3.282 -4.211,-5.59 -6.457,-6.918 -2.254,-1.336 -5.125,-1.996 -8.613,-1.996 -3.691,0 -7.637,1.019 -11.836,3.07 -4.199,2.047 -9.063,4.355 -14.609,6.918 -5.528,2.558 -11.836,4.871 -18.907,6.922 -7.07,2.043 -15.418,3.074 -25.058,3.074 -14.961,0 -26.746,-3.184 -35.352,-9.531 -8.613,-6.356 -12.91,-14.657 -12.91,-24.907 0,-6.761 2.188,-12.453 6.602,-17.066 4.414,-4.609 10.254,-8.66 17.531,-12.144 7.273,-3.485 15.527,-6.61 24.754,-9.379 9.219,-2.762 18.644,-5.789 28.281,-9.067 9.629,-3.281 19.063,-7.027 28.281,-11.226 9.231,-4.203 17.481,-9.532 24.758,-15.985 7.274,-6.457 13.113,-14.203 17.527,-23.215 4.407,-9.023 6.602,-19.89 6.602,-32.586 0,-15.1753 -2.754,-29.1597 -8.301,-41.9722 C 918.09,50.0703 909.984,38.9922 899.332,29.6797 888.676,20.3438 875.504,13.0742 859.828,7.84375 844.145,2.61719 826.156,0 805.863,0 c -10.867,0 -21.472,0.976563 -31.824,2.92188 -10.351,1.94921 -20.293,4.66796 -29.824,8.14452 -9.531,3.4961 -18.352,7.5859 -26.438,12.3008 -8.105,4.707 -15.222,9.8476 -21.367,15.3711 l 17.52,28.9101 c 2.246,3.4727 4.922,6.1524 7.988,7.9883 3.086,1.8516 6.973,2.7696 11.691,2.7696 4.715,0 9.168,-1.336 13.368,-4 4.199,-2.6602 9.082,-5.5274 14.609,-8.6055 5.539,-3.0742 12.043,-5.9453 19.531,-8.6016 7.481,-2.6758 16.953,-4.0039 28.438,-4.0039 9.015,0 16.758,1.0742 23.215,3.2227 6.453,2.1562 11.785,4.9804 15.984,8.4531 4.199,3.4883 7.277,7.5391 9.219,12.1523 1.953,4.6094 2.929,9.375 2.929,14.2969 0,7.3789 -2.207,13.4177 -6.621,18.1447 -4.402,4.707 -10.242,8.808 -17.519,12.293 -7.274,3.484 -15.586,6.609 -24.903,9.387 -9.336,2.761 -18.867,5.781 -28.593,9.058 -9.746,3.285 -19.278,7.133 -28.594,11.535 -9.336,4.407 -17.637,9.992 -24.902,16.758 -7.286,6.762 -13.125,15.063 -17.528,24.902 -4.414,9.84 -6.613,21.723 -6.613,35.668 0,12.911 2.559,25.211 7.687,36.895 5.125,11.687 12.657,21.883 22.598,30.594 9.941,8.711 22.332,15.683 37.207,20.906 14.852,5.23 32.02,7.844 51.492,7.844 21.731,0 41.516,-3.59 59.348,-10.762 17.832,-7.18 32.684,-16.602 44.578,-28.289 l -17.215,-27.363" /><path
         id="path20"
         style="fill:#ef4720;fill-opacity:1;fill-rule:nonzero;stroke:none"
         d="m 1226.78,253.664 c -2.26,-2.871 -4.45,-5.129 -6.61,-6.766 -2.16,-1.644 -5.28,-2.46 -9.38,-2.46 -3.89,0 -7.68,1.179 -11.37,3.535 -3.69,2.355 -8.11,5.019 -13.22,7.996 -5.13,2.972 -11.22,5.636 -18.3,7.996 -7.07,2.355 -15.83,3.535 -26.29,3.535 -13.32,0 -25,-2.41 -35.04,-7.227 -10.05,-4.82 -18.4,-11.738 -25.06,-20.75 -6.67,-9.023 -11.64,-19.945 -14.92,-32.75 -3.28,-12.812 -4.92,-27.316 -4.92,-43.507 0,-16.813 1.79,-31.774 5.39,-44.887 3.57,-13.113 8.76,-24.1329 15.52,-33.0548 6.76,-8.9179 14.96,-15.6836 24.59,-20.2929 9.63,-4.6094 20.5,-6.918 32.6,-6.918 12.09,0 21.88,1.4883 29.36,4.457 7.48,2.9649 13.79,6.25 18.91,9.8399 5.13,3.5859 9.58,6.8671 13.37,9.8476 3.79,2.9688 8.05,4.4531 12.76,4.4531 6.15,0 10.77,-2.3632 13.84,-7.0703 l 21.84,-27.6758 c -8.42,-9.8476 -17.54,-18.0859 -27.37,-24.746 -9.84,-6.6602 -20.04,-11.9922 -30.6,-15.9961 -10.56,-3.99614 -21.46,-6.80864 -32.73,-8.45707 -11.29,-1.63282 -22.46,-2.460942 -33.52,-2.460942 -19.48,0 -37.82,3.648442 -55.04,10.918012 -17.23,7.2734 -32.25,17.8906 -45.05,31.8242 -12.81,13.9375 -22.96,31.0078 -30.438,51.1992 -7.481,20.1799 -11.219,43.1949 -11.219,69.0199 0,23.164 3.328,44.636 9.988,64.414 6.659,19.781 16.449,36.902 29.369,51.347 12.92,14.453 28.89,25.778 47.96,33.977 19.06,8.199 40.99,12.301 65.8,12.301 23.57,0 44.23,-3.797 61.95,-11.379 17.73,-7.582 33.67,-18.446 47.81,-32.594 l -19.98,-27.668" /></g></g></svg>